<svg width="563" height="134" viewBox="0 0 563 134" fill="none" xmlns="http://www.w3.org/2000/svg">
<path d="M42.9343 119.794H29.8564L65.6274 0.668213H78.7052L42.9343 119.794Z" fill="#00487A"/>
<path d="M56.8264 8.50346L54.2808 5.95789L0.00878906 60.2305L31.7592 91.9809L56.8264 8.50346Z" fill="#0A1926"/>
<path d="M76.8025 28.48L51.7354 111.957L54.2809 114.503L108.554 60.2304L76.8025 28.48Z" fill="#0A1926"/>
<path d="M156.154 116.016C156.155 116.449 156.076 116.878 155.92 117.282C155.545 117.999 154.901 118.538 154.13 118.782C153.797 118.853 153.457 118.892 153.117 118.899H145.444C144.993 118.915 144.543 118.842 144.12 118.685C143.8 118.556 143.519 118.348 143.302 118.081C143.077 117.792 142.9 117.47 142.776 117.127C142.631 116.751 142.482 116.342 142.328 115.9L141.822 114.147C141.072 114.89 140.272 115.579 139.426 116.209C138.498 116.904 137.507 117.511 136.466 118.021C135.357 118.565 134.195 118.995 132.999 119.306C131.747 119.633 130.457 119.798 129.163 119.794C126.867 119.803 124.581 119.502 122.366 118.899C118.125 117.746 114.262 115.496 111.168 112.374C108.054 109.239 105.811 105.346 104.663 101.078C104.06 98.837 103.758 96.5249 103.767 94.2036C103.742 90.8366 104.383 87.4978 105.653 84.3794C106.923 81.261 108.797 78.4247 111.168 76.0336C113.53 73.6735 116.336 71.806 119.425 70.5391C122.514 69.2722 125.824 68.6313 129.163 68.6535C130.68 68.6412 132.192 68.8236 133.662 69.1962C134.989 69.5356 136.27 70.0324 137.479 70.676C138.615 71.2861 139.669 72.0386 140.614 72.9155C141.532 73.765 142.354 74.7111 143.068 75.7373L144.197 72.1932C144.457 71.5442 144.671 71.0184 144.84 70.6158C144.963 70.2857 145.148 69.9818 145.383 69.7199C145.581 69.5237 145.831 69.3884 146.104 69.3302C146.502 69.2558 146.907 69.2232 147.312 69.2331H153.115C153.455 69.2392 153.794 69.2782 154.127 69.3498C154.512 69.4252 154.865 69.6156 155.14 69.8957C155.478 70.149 155.746 70.484 155.919 70.8692C156.081 71.265 156.161 71.6897 156.153 72.1173L156.154 116.016ZM117.788 94.2015C117.775 95.8389 118.046 97.4662 118.587 99.0115C119.082 100.442 119.857 101.759 120.866 102.887C121.864 103.986 123.077 104.868 124.43 105.477C125.881 106.127 127.456 106.452 129.046 106.432C130.711 106.447 132.361 106.122 133.895 105.477C135.346 104.869 136.668 103.99 137.79 102.887C138.904 101.781 139.785 100.464 140.381 99.0115C141.627 95.9458 141.627 92.5147 140.381 89.449C139.776 87.9729 138.897 86.6248 137.79 85.4762C136.68 84.3296 135.357 83.4103 133.895 82.7695C132.367 82.1003 130.714 81.7619 129.046 81.7764C127.452 81.7559 125.875 82.0954 124.43 82.7695C123.066 83.4125 121.852 84.3346 120.866 85.4762C119.864 86.6456 119.091 87.9934 118.587 89.449C118.051 90.9765 117.78 92.5847 117.788 94.2036L117.788 94.2015Z" fill="#0A1926"/>
<path d="M163.907 71.0238C164.213 70.7554 164.581 70.5688 164.978 70.4812C165.33 70.4056 165.689 70.3663 166.05 70.364H171.931C172.348 70.3531 172.761 70.4399 173.138 70.6174C173.469 70.781 173.761 71.0129 173.995 71.2979C174.233 71.5903 174.424 71.9182 174.56 72.2697C174.702 72.6315 174.839 73.0067 174.969 73.3952L175.787 76.8139C176.79 74.8263 178.328 73.1582 180.227 71.9979C181.473 71.2425 182.816 70.6608 184.22 70.269C185.99 69.7871 187.819 69.5584 189.653 69.5896C191.154 69.5744 192.651 69.7374 194.113 70.0752C195.396 70.3778 196.629 70.8619 197.775 71.5127C198.881 72.1497 199.896 72.9335 200.793 73.8429C201.746 74.8161 202.606 75.8758 203.363 77.0081C203.976 76.0681 204.716 75.2184 205.564 74.4837C206.625 73.5434 207.795 72.7347 209.05 72.0755C210.486 71.3163 212.001 70.7171 213.568 70.2885C215.294 69.8139 217.076 69.5787 218.866 69.5896C221.549 69.5272 224.208 70.1134 226.617 71.2984C228.788 72.4078 230.674 74.0029 232.128 75.9598C233.646 78.0342 234.762 80.3744 235.419 82.8595C236.161 85.6062 236.528 88.4407 236.51 91.2858V116.798C236.567 117.597 236.34 118.39 235.867 119.037C235.605 119.308 235.285 119.517 234.931 119.648C234.577 119.78 234.199 119.831 233.823 119.797H224.826C223.709 119.797 222.943 119.609 222.528 119.233C222.112 118.857 221.904 118.123 221.904 117.032V91.2826C221.913 90.2209 221.735 89.1659 221.378 88.1661C221.051 87.2457 220.556 86.394 219.918 85.6542C219.289 84.9363 218.512 84.3648 217.639 83.9796C216.7 83.5682 215.684 83.3622 214.659 83.3756C213.694 83.3712 212.738 83.5704 211.855 83.96C210.979 84.3445 210.186 84.893 209.517 85.576C208.822 86.2945 208.273 87.1412 207.901 88.069C207.489 89.0897 207.284 90.182 207.297 91.2826V116.795C207.354 117.594 207.127 118.387 206.654 119.034C206.392 119.305 206.072 119.514 205.718 119.645C205.364 119.777 204.986 119.827 204.61 119.794H195.612C194.495 119.794 193.729 119.606 193.314 119.23C192.899 118.853 192.691 118.12 192.691 117.029V91.2826C192.699 90.224 192.534 89.1713 192.203 88.1661C191.9 87.2467 191.424 86.394 190.8 85.6542C190.191 84.9409 189.433 84.3694 188.58 83.9796C187.656 83.5656 186.652 83.3594 185.639 83.3756C184.695 83.3779 183.761 83.5702 182.893 83.941C181.996 84.3185 181.177 84.86 180.478 85.5375C179.744 86.2535 179.138 87.0901 178.687 88.0109C178.197 89.0085 177.912 90.0945 177.849 91.2044V116.912C177.847 117.365 177.762 117.814 177.597 118.236C177.453 118.644 177.188 118.997 176.837 119.249C176.542 119.438 176.22 119.582 175.883 119.677C175.546 119.759 175.199 119.799 174.852 119.794H166.05C164.933 119.794 164.128 119.521 163.635 118.976C163.119 118.37 162.855 117.59 162.895 116.795V73.2378C162.89 72.765 163.004 72.2987 163.226 71.8812C163.435 71.4787 163.752 71.1424 164.141 70.9099L163.907 71.0238Z" fill="#0A1926"/>
<path d="M243.251 53.6558C243.251 52.5654 243.485 51.793 243.952 51.3386C244.562 50.8354 245.345 50.5906 246.134 50.6566H255.17C255.961 50.6193 256.74 50.8606 257.371 51.3386C257.929 51.793 258.208 52.5654 258.208 53.6558V61.2529C258.2 61.6008 258.128 61.9442 257.994 62.2655C257.843 62.6428 257.64 62.9968 257.39 63.3171C257.13 63.6557 256.805 63.9401 256.436 64.1544C256.051 64.3772 255.614 64.4917 255.17 64.4854H246.134C244.212 64.4854 243.251 63.4079 243.251 61.2529V53.6558ZM243.251 73.3648C243.232 72.5916 243.48 71.8354 243.952 71.223C244.219 70.9122 244.556 70.6689 244.935 70.5132C245.314 70.3574 245.725 70.2934 246.134 70.3265H255.054C255.402 70.335 255.745 70.4086 256.066 70.5436C256.437 70.6915 256.78 70.9022 257.079 71.1665C257.392 71.442 257.662 71.7641 257.877 72.1216C258.102 72.4987 258.216 72.9309 258.208 73.3697V116.8C258.238 117.209 258.18 117.621 258.039 118.007C257.898 118.393 257.677 118.745 257.39 119.039C256.738 119.583 255.901 119.855 255.053 119.799H246.134C244.212 119.799 243.251 118.799 243.251 116.8V73.3648Z" fill="#0A1926"/>
<path d="M264.948 53.6173C264.923 52.8673 265.142 52.1295 265.571 51.5139C265.987 50.9427 266.701 50.6571 267.714 50.6571H277.256C277.542 50.664 277.822 50.7372 278.074 50.8709C278.373 51.0246 278.644 51.2289 278.873 51.4749C279.13 51.7506 279.341 52.0664 279.496 52.4099C279.668 52.7889 279.754 53.2011 279.749 53.6173V116.795C279.779 117.206 279.719 117.619 279.575 118.006C279.43 118.392 279.204 118.743 278.912 119.034C278.315 119.555 277.541 119.827 276.75 119.794H267.713C266.7 119.794 265.986 119.541 265.571 119.034C265.111 118.382 264.891 117.591 264.947 116.795L264.948 53.6173Z" fill="#0A1926"/>
<path d="M317.983 103.668C318.289 103.435 318.64 103.269 319.014 103.18C319.264 103.124 319.518 103.092 319.774 103.083C320.192 103.078 320.605 103.171 320.981 103.354C321.45 103.642 321.839 104.044 322.11 104.523L326.473 111.105C326.612 111.331 326.735 111.565 326.842 111.807C326.942 112 327.001 112.212 327.018 112.43C327.028 112.699 326.983 112.967 326.886 113.218C326.789 113.469 326.641 113.698 326.453 113.89C326.08 114.264 325.669 114.596 325.226 114.883C323.066 116.38 320.715 117.579 318.236 118.449C315.651 119.353 312.931 119.808 310.193 119.792C307.91 119.799 305.637 119.498 303.435 118.896C301.312 118.319 299.275 117.461 297.378 116.346C295.506 115.24 293.779 113.906 292.237 112.373C290.687 110.839 289.35 109.103 288.264 107.212C287.159 105.283 286.302 103.221 285.713 101.077C284.493 96.5689 284.493 91.817 285.713 87.3086C286.297 85.1629 287.155 83.101 288.264 81.1734C289.354 79.2911 290.69 77.5623 292.237 76.0324C293.776 74.502 295.504 73.1736 297.378 72.0791C301.271 69.8221 305.693 68.6393 310.193 68.6518C312.851 68.6268 315.498 69.0076 318.041 69.781C320.454 70.5401 322.734 71.6702 324.799 73.1308L324.682 73.0141C325.211 73.315 325.675 73.7187 326.045 74.2015C326.395 74.6956 326.573 75.2907 326.551 75.8956C326.536 76.4108 326.374 76.9109 326.084 77.3369L322.618 83.2181C321.891 84.4905 321.008 85.1266 319.969 85.1266C319.676 85.115 319.386 85.0558 319.112 84.9513C318.711 84.8011 318.331 84.5982 317.982 84.3479C316.831 83.5906 315.596 82.9694 314.302 82.4969C312.959 82.0117 311.542 81.768 310.115 81.7769C308.553 81.7606 307.008 82.1001 305.596 82.7699C304.243 83.4134 303.041 84.3359 302.069 85.4766C301.076 86.6527 300.304 87.9986 299.79 89.4494C298.7 92.5437 298.7 95.9177 299.79 99.012C300.295 100.437 301.069 101.753 302.069 102.888C303.08 104.017 304.321 104.917 305.708 105.529C307.095 106.14 308.597 106.448 310.112 106.432C311.539 106.442 312.954 106.178 314.28 105.653C315.584 105.132 316.827 104.466 317.983 103.668Z" fill="#0A1926"/>
<path d="M379.407 116.016C379.409 116.449 379.33 116.878 379.174 117.282C378.798 117.999 378.155 118.538 377.383 118.782C377.05 118.853 376.711 118.892 376.37 118.899H368.697C368.246 118.915 367.796 118.842 367.373 118.685C367.054 118.556 366.772 118.348 366.555 118.081C366.331 117.792 366.153 117.47 366.029 117.127C365.885 116.751 365.735 116.342 365.581 115.9L365.074 114.147C364.325 114.889 363.524 115.578 362.679 116.209C361.751 116.904 360.76 117.511 359.719 118.021C358.609 118.565 357.448 118.995 356.252 119.306C355 119.633 353.71 119.797 352.416 119.794C350.12 119.803 347.834 119.502 345.619 118.899C341.378 117.746 337.515 115.496 334.421 112.374C331.307 109.239 329.065 105.346 327.916 101.078C327.313 98.837 327.011 96.5249 327.02 94.2036C326.995 90.8366 327.636 87.4978 328.906 84.3794C330.176 81.261 332.05 78.4247 334.421 76.0336C336.783 73.6735 339.589 71.8059 342.679 70.539C345.768 69.2722 349.078 68.6313 352.416 68.6535C353.933 68.6412 355.445 68.8236 356.915 69.1962C358.242 69.5356 359.524 70.0324 360.732 70.676C361.869 71.286 362.923 72.0386 363.868 72.9155C364.785 73.7651 365.608 74.7112 366.322 75.7373L367.451 72.1933C367.711 71.5442 367.925 71.0184 368.095 70.6158C368.217 70.2857 368.402 69.9818 368.637 69.7199C368.835 69.5237 369.085 69.3884 369.358 69.3302C369.756 69.2558 370.161 69.2232 370.566 69.2331H376.369C376.709 69.2391 377.048 69.2782 377.381 69.3498C377.766 69.4251 378.119 69.6154 378.394 69.8957C378.732 70.149 379 70.484 379.173 70.8692C379.335 71.265 379.415 71.6897 379.407 72.1173L379.407 116.016ZM341.042 94.2015C341.029 95.8389 341.299 97.4662 341.841 99.0115C342.335 100.442 343.11 101.759 344.12 102.887C345.117 103.986 346.331 104.868 347.684 105.477C349.135 106.127 350.71 106.452 352.3 106.432C353.964 106.447 355.614 106.122 357.149 105.477C358.6 104.869 359.922 103.99 361.044 102.887C362.158 101.781 363.038 100.464 363.634 99.0115C364.881 95.9459 364.881 92.5146 363.634 89.449C363.03 87.9728 362.151 86.6247 361.044 85.4762C359.933 84.3297 358.61 83.4104 357.149 82.7695C355.62 82.1003 353.968 81.7619 352.3 81.7764C350.706 81.7559 349.128 82.0953 347.684 82.7695C346.32 83.4126 345.105 84.3347 344.12 85.4762C343.117 86.6456 342.344 87.9934 341.841 89.449C341.304 90.9765 341.034 92.5847 341.041 94.2036L341.042 94.2015Z" fill="#0A1926"/>
<path d="M386.148 73.2091C386.136 72.7652 386.229 72.3249 386.419 71.9235C386.589 71.5748 386.835 71.2688 387.139 71.0282C387.442 70.7924 387.785 70.6142 388.152 70.5023C388.511 70.3883 388.885 70.3292 389.262 70.3271H395.143C395.429 70.3136 395.714 70.3585 395.982 70.459C396.25 70.5595 396.495 70.7134 396.701 70.9115C397.118 71.3414 397.454 71.8426 397.694 72.3913C397.983 73.0347 398.224 73.6987 398.415 74.3779C398.618 75.0937 398.865 75.7963 399.155 76.4818C399.934 75.6248 400.707 74.7808 401.473 73.9498C402.224 73.132 403.052 72.3883 403.946 71.7293C404.838 71.0756 405.814 70.5451 406.848 70.1518C408.002 69.7318 409.223 69.5272 410.451 69.5484C411.711 69.5361 412.969 69.6402 414.21 69.8593C415.283 70.0587 416.333 70.3652 417.345 70.7742C418.37 71.1971 419.354 71.7122 420.286 72.3131C421.26 72.9361 422.318 73.6633 423.46 74.4946C424.576 75.144 425.135 75.9098 425.135 76.7922C425.092 77.5009 424.863 78.1858 424.473 78.7788L420.928 84.8163C420.659 85.2713 420.278 85.6497 419.821 85.9157C419.364 86.1816 418.847 86.3262 418.319 86.3358C417.711 86.3154 417.114 86.1694 416.566 85.9071C415.577 84.9073 414.424 84.0842 413.158 83.4733C411.914 82.9226 410.565 82.6499 409.204 82.6745C408.297 82.6571 407.393 82.8024 406.536 83.1032C405.778 83.3845 405.073 83.7928 404.452 84.3106C403.798 84.8636 403.209 85.491 402.7 86.18C402.154 86.9072 401.609 87.7121 401.064 88.5948V116.795C401.123 117.607 400.865 118.41 400.343 119.035C399.862 119.541 399.064 119.794 397.948 119.794H389.183C387.157 119.794 386.145 118.795 386.145 116.795L386.148 73.2091Z" fill="#0A1926"/>
<path d="M439.433 75.5463C439.812 74.8516 440.262 74.1988 440.777 73.5987C441.399 72.8625 442.113 72.2083 442.9 71.6517C443.778 71.0294 444.734 70.5251 445.743 70.1518C446.865 69.7393 448.053 69.5348 449.249 69.5484C450.517 69.542 451.785 69.6005 453.047 69.7236C454.135 69.8326 455.211 70.0413 456.261 70.3471C457.28 70.6481 458.265 71.0525 459.202 71.554C460.242 72.1203 461.238 72.765 462.181 73.4826C462.543 73.7597 462.887 74.0587 463.212 74.3779C463.391 74.5408 463.534 74.7394 463.631 74.9608C463.728 75.1823 463.778 75.4216 463.777 75.6635C463.78 75.9355 463.713 76.2038 463.582 76.4422L461.285 79.9868C461.164 80.1712 461.003 80.3263 460.814 80.4408C460.625 80.5553 460.414 80.6264 460.194 80.6488C459.98 80.6469 459.774 80.5714 459.61 80.435C459.429 80.2925 459.208 80.1297 458.948 79.9466C457.5 78.9378 455.921 78.1317 454.254 77.5508C452.689 77.0373 451.052 76.7807 449.405 76.7911C448.12 76.7893 446.849 77.0413 445.662 77.5326C444.476 78.024 443.398 78.745 442.491 79.6541C441.535 80.6269 440.781 81.7784 440.271 83.043C439.693 84.4848 439.408 86.0274 439.434 87.5806V118.078C439.434 119.22 438.863 119.791 437.72 119.791H433.669C432.476 119.791 431.879 119.22 431.879 118.078V72.0408C431.868 71.8085 431.908 71.5768 431.995 71.3614C432.083 71.1459 432.216 70.9519 432.385 70.7926C432.711 70.4852 433.145 70.3173 433.593 70.3249H437.643C437.884 70.3136 438.125 70.3529 438.349 70.4402C438.574 70.5275 438.778 70.6609 438.948 70.8317C439.106 70.9903 439.23 71.1788 439.314 71.386C439.398 71.5932 439.439 71.8151 439.437 72.0386L439.433 75.5463Z" fill="#0A1926"/>
<path d="M501.365 107.564C501.604 107.352 501.858 107.156 502.125 106.979C502.277 106.862 502.452 106.78 502.639 106.738C502.826 106.696 503.02 106.695 503.208 106.736C503.395 106.777 503.571 106.858 503.724 106.974C503.877 107.09 504.002 107.238 504.092 107.408C504.611 108.109 505.032 108.68 505.357 109.122C505.682 109.563 505.948 109.914 506.156 110.173C506.363 110.459 506.519 110.667 506.623 110.796C506.748 110.945 506.853 111.109 506.935 111.285C507.015 111.462 507.055 111.655 507.052 111.849C507.036 112.181 506.921 112.5 506.721 112.765C506.393 113.199 506.006 113.586 505.572 113.914C504.465 114.79 503.301 115.591 502.086 116.31C500.872 117.027 499.601 117.646 498.288 118.159C496.932 118.688 495.53 119.093 494.101 119.367C490.328 120.072 486.445 119.905 482.747 118.879C480.61 118.277 478.561 117.4 476.651 116.269C472.838 114.015 469.645 110.85 467.359 107.056C466.211 105.15 465.321 103.1 464.71 100.961C464.083 98.7629 463.768 96.4879 463.776 94.2025C463.763 89.6857 464.924 85.2431 467.145 81.3102C469.307 77.4998 472.438 74.3286 476.22 72.1183C478.162 70.9877 480.244 70.1169 482.413 69.5282C484.705 68.9086 487.07 68.6008 489.444 68.6128C491.397 68.6135 493.344 68.8356 495.247 69.2748C497.156 69.7125 499.011 70.3593 500.778 71.2034C502.55 72.0513 504.217 73.1035 505.744 74.3388C507.296 75.5935 508.689 77.0331 509.893 78.6257C511.585 80.9214 512.839 83.5093 513.593 86.2597C514.44 89.4734 514.821 92.7922 514.723 96.1143C514.723 97.3349 514.151 97.945 513.009 97.9446H471.955C472.382 99.9875 473.167 101.939 474.273 103.709C475.349 105.445 476.69 107.002 478.245 108.325C479.782 109.631 481.526 110.671 483.406 111.402C485.279 112.137 487.275 112.514 489.287 112.511C490.591 112.525 491.891 112.388 493.163 112.102C494.251 111.853 495.309 111.488 496.318 111.012C497.24 110.573 498.12 110.052 498.947 109.454C499.752 108.87 500.53 108.266 501.284 107.643L501.365 107.564ZM480.02 78.7402C478.029 80.0831 476.3 81.7794 474.919 83.7451C473.501 85.7354 472.507 87.996 471.998 90.3866H507.21C506.95 88.3093 506.266 86.3074 505.202 84.5048C504.175 82.7673 502.834 81.2354 501.249 79.9867C499.639 78.7262 497.828 77.7452 495.893 77.0846C493.908 76.3973 491.82 76.0487 489.719 76.0536C488.029 76.0542 486.346 76.2767 484.714 76.7156C483.06 77.1594 481.479 77.8414 480.02 78.7402Z" fill="#0A1926"/>
<path d="M526.045 70.0936C526.538 71.392 527.174 73.0409 527.953 75.0404C528.733 77.0399 529.577 79.2016 530.485 81.5256C531.394 83.8499 532.334 86.2454 533.307 88.7119C534.279 91.1784 535.214 93.5285 536.111 95.762C537.006 97.9952 537.824 100.027 538.564 101.858C539.305 103.688 539.895 105.135 540.337 106.199C540.752 105.134 541.323 103.687 542.05 101.858C542.778 100.028 543.576 97.9894 544.446 95.7425C545.314 93.4967 546.23 91.1401 547.193 88.6728C548.156 86.2056 549.084 83.8102 549.977 81.4865C550.873 79.1626 551.704 77.0008 552.47 75.0013C553.236 73.0018 553.865 71.3529 554.359 70.0545C554.52 69.6405 554.789 69.2771 555.138 69.0023C555.511 68.7315 555.964 68.5943 556.424 68.6127H560.747C561.889 68.6127 562.46 69.0673 562.461 69.9764C562.459 70.068 562.446 70.1591 562.422 70.2477C562.39 70.3669 562.351 70.484 562.305 70.5983C562.251 70.7364 562.211 70.88 562.188 71.0264L553.034 93.579L537.454 131.75V131.672C537.321 132.109 537.045 132.488 536.671 132.749C536.297 133.01 535.847 133.139 535.392 133.114H531.536C530.289 133.114 529.666 132.633 529.666 131.672C529.667 131.482 529.693 131.292 529.744 131.108C529.781 130.987 529.807 130.863 529.822 130.738L536.327 115.041L518.254 71.066C518.228 70.9884 518.199 70.8973 518.176 70.7947C518.119 70.5392 518.093 70.2778 518.098 70.016C518.098 69.1073 518.695 68.6527 519.889 68.6523H523.979C524.439 68.6342 524.892 68.7715 525.264 69.0419C525.613 69.3167 525.883 69.6798 526.045 70.0936Z" fill="#0A1926"/>
</svg>
