<svg width="234" height="235" viewBox="0 0 234 235" fill="none" xmlns="http://www.w3.org/2000/svg">
<path d="M70.7412 126.828H56.8877L94.7792 0.644287H108.633L70.7412 126.828Z" fill="#06487A"/>
<path d="M85.4551 8.94721L82.7584 6.25049L25.2715 63.7377L58.9027 97.3689L85.4551 8.94721Z" fill="white"/>
<path d="M106.616 30.1063L80.0664 118.529L82.7629 121.226L140.25 63.739L106.616 30.1063Z" fill="white"/>
<path d="M38.1896 174.7C38.1907 175.013 38.1331 175.324 38.0198 175.617C37.7465 176.135 37.2791 176.523 36.7201 176.697C36.4785 176.749 36.2325 176.778 35.9854 176.782H30.4286C30.1016 176.794 29.7752 176.742 29.4684 176.628C29.237 176.534 29.0332 176.383 28.8758 176.19C28.7132 175.98 28.5844 175.747 28.4945 175.498C28.3916 175.225 28.2836 174.928 28.1704 174.607L27.8029 173.337C27.2597 173.876 26.6794 174.376 26.0664 174.834C25.3939 175.338 24.6755 175.778 23.9208 176.148C23.1165 176.54 22.2747 176.851 21.408 177.074C20.5009 177.311 19.567 177.43 18.6295 177.427C16.9649 177.434 15.307 177.215 13.7009 176.778C10.6258 175.942 7.82527 174.311 5.58173 172.048C3.32409 169.775 1.69879 166.952 0.866234 163.858C0.428583 162.233 0.210004 160.557 0.21636 158.874C0.197721 156.433 0.662162 154.012 1.583 151.751C2.50383 149.49 3.8628 147.433 5.58173 145.699C7.29409 143.988 9.32929 142.634 11.5691 141.715C13.8089 140.797 16.2087 140.332 18.6295 140.348C19.7291 140.339 20.8253 140.472 21.8911 140.743C22.8535 140.991 23.7826 141.354 24.6587 141.824C25.4828 142.266 26.2469 142.811 26.9324 143.447C27.5973 144.063 28.1934 144.75 28.7106 145.494L29.5302 142.924C29.7185 142.454 29.873 142.073 29.9934 141.78C30.0829 141.541 30.217 141.32 30.3885 141.131C30.5317 140.988 30.7128 140.89 30.9102 140.848C31.1987 140.794 31.4921 140.77 31.7855 140.777H35.9932C36.2402 140.781 36.4862 140.81 36.7278 140.862C37.007 140.916 37.2633 141.054 37.4627 141.257C37.7075 141.441 37.9019 141.683 38.0276 141.962C38.145 142.249 38.2027 142.556 38.1973 142.866L38.1896 174.7ZM10.373 158.886C10.3636 160.073 10.5594 161.253 10.9518 162.373C11.3102 163.41 11.8718 164.365 12.6035 165.182C13.3268 165.979 14.2063 166.619 15.1874 167.061C16.2394 167.532 17.3813 167.768 18.5338 167.752C19.7407 167.763 20.9373 167.528 22.0502 167.061C23.1025 166.62 24.0611 165.982 24.8748 165.182C25.6827 164.381 26.3215 163.426 26.7534 162.373C27.6572 160.15 27.6572 157.662 26.7534 155.439C26.3151 154.369 25.6776 153.392 24.8748 152.559C24.0696 151.728 23.1102 151.061 22.0502 150.597C20.9419 150.112 19.7435 149.867 18.5338 149.878C17.3784 149.863 16.2346 150.109 15.1874 150.597C14.1984 151.063 13.3182 151.732 12.6035 152.559C11.877 153.407 11.3166 154.384 10.9518 155.439C10.5631 156.547 10.3673 157.712 10.373 158.886Z" fill="white"/>
<path d="M43.8105 142.08C44.0304 141.885 44.2959 141.749 44.5823 141.684C44.836 141.63 45.0946 141.602 45.354 141.6H49.6175C49.9196 141.592 50.2191 141.655 50.4925 141.783C50.7309 141.903 50.9413 142.071 51.11 142.277C51.2823 142.489 51.4203 142.727 51.5191 142.981C51.622 143.245 51.7208 143.517 51.8155 143.798L52.4083 146.275C53.1352 144.834 54.2504 143.625 55.628 142.783C56.5313 142.236 57.505 141.814 58.5222 141.53C59.8054 141.181 61.1317 141.015 62.4614 141.038C63.5495 141.027 64.635 141.145 65.6952 141.39C66.6252 141.609 67.5193 141.96 68.3502 142.431C69.1527 142.894 69.8889 143.462 70.539 144.122C71.2296 144.828 71.8533 145.596 72.4021 146.417C72.8463 145.735 73.3834 145.119 73.9981 144.586C74.767 143.905 75.6155 143.319 76.525 142.841C77.5662 142.29 78.6645 141.856 79.8004 141.546C81.0513 141.202 82.3436 141.031 83.6408 141.039C85.5863 140.993 87.5142 141.416 89.261 142.274C90.8351 143.078 92.2027 144.234 93.2572 145.653C94.3578 147.157 95.1673 148.854 95.6436 150.656C96.1815 152.647 96.4473 154.702 96.4339 156.765V175.263C96.4765 175.842 96.3123 176.418 95.9707 176.887C95.7803 177.083 95.5486 177.235 95.2922 177.33C95.0359 177.425 94.7614 177.462 94.489 177.438H87.9737C87.3878 177.5 86.7985 177.355 86.308 177.029C86.1301 176.807 85.9984 176.551 85.9208 176.277C85.8431 176.003 85.821 175.716 85.8558 175.433V156.765C85.8624 155.995 85.7334 155.23 85.4746 154.505C85.2372 153.838 84.8781 153.221 84.4156 152.684C83.9604 152.163 83.3967 151.749 82.7641 151.469C82.0833 151.171 81.3464 151.021 80.6031 151.031C79.9031 151.028 79.2104 151.172 78.5702 151.455C77.9344 151.733 77.358 152.131 76.8723 152.627C76.3684 153.148 75.9705 153.762 75.7007 154.434C75.4019 155.175 75.2529 155.967 75.2622 156.765V175.263C75.3046 175.842 75.1407 176.417 74.7992 176.887C74.6086 177.084 74.3764 177.235 74.1198 177.33C73.8631 177.426 73.5885 177.463 73.3158 177.438H66.7927C66.2063 177.5 65.6167 177.356 65.1257 177.029C64.9478 176.807 64.816 176.551 64.7383 176.277C64.6607 176.003 64.6386 175.716 64.6733 175.433V156.765C64.6797 155.998 64.5603 155.234 64.3199 154.505C64.1005 153.839 63.7553 153.22 63.3027 152.684C62.8611 152.167 62.3116 151.752 61.6928 151.469C61.0229 151.169 60.2951 151.019 59.561 151.031C58.8764 151.032 58.1993 151.172 57.5699 151.441C56.9191 151.715 56.3249 152.108 55.818 152.599C55.2855 153.118 54.8458 153.725 54.5182 154.393C54.1628 155.116 53.9566 155.903 53.9117 156.708V175.347C53.91 175.675 53.8477 176.001 53.728 176.307C53.6241 176.602 53.4316 176.859 53.1768 177.041C52.9628 177.178 52.7298 177.282 52.4853 177.35C52.2404 177.41 51.9888 177.438 51.7367 177.435H45.371C45.0695 177.483 44.7612 177.46 44.4698 177.37C44.1783 177.279 43.9116 177.123 43.6904 176.912C43.4692 176.702 43.2994 176.444 43.1941 176.157C43.0889 175.871 43.0511 175.564 43.0835 175.26V143.68C43.0804 143.337 43.1632 142.999 43.3243 142.695C43.4758 142.404 43.7056 142.16 43.988 141.992L43.8105 142.08Z" fill="white"/>
<path d="M101.339 129.495C101.308 129.195 101.338 128.892 101.425 128.604C101.512 128.315 101.655 128.047 101.847 127.814C102.289 127.449 102.857 127.272 103.429 127.32H109.981C110.555 127.293 111.12 127.468 111.577 127.814C111.799 128.03 111.968 128.294 112.073 128.585C112.178 128.876 112.216 129.187 112.184 129.495V135.002C112.179 135.255 112.126 135.504 112.03 135.737C111.92 136.01 111.772 136.267 111.591 136.5C111.402 136.745 111.167 136.951 110.9 137.106C110.621 137.268 110.304 137.351 109.981 137.347H103.429C102.035 137.347 101.339 136.566 101.339 135.004V129.495ZM101.339 143.784C101.325 143.223 101.504 142.675 101.847 142.231C102.04 142.006 102.285 141.829 102.56 141.716C102.835 141.603 103.133 141.557 103.429 141.581H109.895C110.147 141.586 110.397 141.638 110.63 141.735C110.899 141.843 111.147 141.996 111.364 142.188C111.592 142.387 111.787 142.62 111.943 142.879C112.106 143.152 112.189 143.465 112.184 143.782V175.271C112.206 175.568 112.164 175.866 112.062 176.146C111.96 176.426 111.799 176.681 111.591 176.895C111.117 177.29 110.509 177.487 109.893 177.446H103.427C102.034 177.446 101.337 176.721 101.337 175.271L101.339 143.784Z" fill="white"/>
<path d="M117.069 129.46C117.051 128.916 117.21 128.381 117.521 127.935C117.71 127.713 117.951 127.542 118.221 127.434C118.492 127.327 118.785 127.286 119.074 127.317H125.992C126.199 127.322 126.402 127.375 126.585 127.471C126.802 127.583 126.998 127.731 127.164 127.91C127.351 128.11 127.503 128.338 127.616 128.587C127.741 128.862 127.804 129.161 127.8 129.463V175.268C127.821 175.566 127.778 175.866 127.673 176.146C127.569 176.426 127.405 176.681 127.193 176.892C126.76 177.269 126.2 177.466 125.626 177.443H119.074C118.79 177.473 118.504 177.439 118.235 177.343C117.966 177.248 117.722 177.094 117.521 176.892C117.188 176.419 117.028 175.845 117.069 175.268V129.46Z" fill="white"/>
<path d="M155.522 165.747C155.744 165.578 155.999 165.457 156.271 165.394C156.452 165.353 156.636 165.329 156.822 165.323C157.125 165.319 157.425 165.387 157.697 165.52C158.038 165.729 158.319 166.02 158.516 166.368L161.679 171.14C161.78 171.304 161.87 171.473 161.948 171.648C162.02 171.789 162.063 171.943 162.074 172.101C162.082 172.296 162.049 172.49 161.979 172.672C161.909 172.854 161.802 173.02 161.665 173.159C161.395 173.43 161.097 173.671 160.776 173.879C159.21 174.963 157.505 175.832 155.707 176.463C153.833 177.119 151.861 177.448 149.876 177.437C148.221 177.442 146.573 177.223 144.976 176.787C143.437 176.367 141.96 175.744 140.585 174.935C139.227 174.133 137.975 173.166 136.857 172.054C135.733 170.942 134.765 169.684 133.977 168.313C133.175 166.914 132.552 165.42 132.125 163.866C131.24 160.597 131.24 157.152 132.125 153.883C132.549 152.327 133.172 150.832 133.977 149.435C134.768 148.07 135.736 146.817 136.857 145.707C137.973 144.597 139.226 143.634 140.585 142.841C143.407 141.204 146.613 140.347 149.876 140.355C151.803 140.337 153.722 140.613 155.567 141.174C157.316 141.724 158.969 142.543 160.466 143.602L160.381 143.517C160.764 143.735 161.1 144.028 161.369 144.378C161.624 144.738 161.753 145.172 161.736 145.613C161.726 145.986 161.608 146.349 161.398 146.658L158.885 150.921C158.725 151.308 158.461 151.642 158.122 151.887C157.783 152.133 157.382 152.279 156.965 152.31C156.754 152.302 156.546 152.259 156.348 152.184C156.056 152.076 155.781 151.928 155.528 151.747C154.694 151.198 153.798 150.748 152.859 150.406C151.886 150.054 150.858 149.877 149.823 149.884C148.691 149.872 147.571 150.118 146.548 150.603C145.567 151.07 144.696 151.738 143.992 152.565C143.272 153.418 142.712 154.394 142.34 155.445C141.549 157.689 141.549 160.136 142.34 162.379C142.706 163.412 143.267 164.366 143.992 165.188C144.725 166.007 145.624 166.66 146.63 167.104C147.635 167.547 148.724 167.77 149.823 167.758C150.858 167.766 151.884 167.574 152.845 167.194C153.789 166.813 154.686 166.327 155.522 165.747Z" fill="white"/>
<path d="M200.056 174.7C200.057 175.013 199.999 175.324 199.886 175.617C199.613 176.135 199.145 176.523 198.586 176.697C198.345 176.749 198.099 176.778 197.852 176.782H192.295C191.968 176.794 191.641 176.742 191.335 176.628C191.103 176.534 190.899 176.383 190.742 176.19C190.579 175.981 190.45 175.747 190.361 175.498C190.258 175.225 190.15 174.928 190.037 174.607L189.669 173.337C189.126 173.876 188.545 174.376 187.933 174.834C187.26 175.338 186.542 175.778 185.787 176.148C184.983 176.54 184.141 176.851 183.274 177.074C182.367 177.311 181.433 177.43 180.496 177.427C178.831 177.434 177.173 177.215 175.567 176.778C172.492 175.942 169.692 174.311 167.448 172.048C165.19 169.775 163.565 166.952 162.732 163.858C162.295 162.233 162.076 160.557 162.083 158.874C162.064 156.433 162.528 154.012 163.449 151.751C164.37 149.49 165.729 147.433 167.448 145.699C169.16 143.988 171.195 142.634 173.435 141.715C175.675 140.797 178.075 140.332 180.496 140.348C181.595 140.339 182.691 140.472 183.757 140.743C184.72 140.991 185.649 141.354 186.525 141.824C187.349 142.266 188.113 142.811 188.799 143.447C189.464 144.063 190.061 144.75 190.578 145.494L191.398 142.924C191.586 142.454 191.741 142.073 191.861 141.78C191.951 141.541 192.085 141.32 192.256 141.131C192.399 140.988 192.58 140.89 192.778 140.848C193.066 140.794 193.36 140.77 193.653 140.777H197.861C198.108 140.781 198.354 140.81 198.596 140.862C198.875 140.916 199.131 141.054 199.33 141.257C199.575 141.441 199.769 141.683 199.895 141.962C200.013 142.249 200.07 142.556 200.065 142.866L200.056 174.7ZM172.239 158.886C172.23 160.073 172.426 161.253 172.818 162.373C173.177 163.41 173.738 164.365 174.47 165.182C175.193 165.979 176.072 166.619 177.054 167.061C178.106 167.532 179.247 167.768 180.4 167.752C181.607 167.763 182.803 167.528 183.916 167.061C184.968 166.62 185.926 165.982 186.739 165.182C187.547 164.381 188.186 163.426 188.618 162.373C189.522 160.15 189.522 157.662 188.618 155.439C188.18 154.369 187.542 153.392 186.739 152.559C185.935 151.728 184.976 151.062 183.916 150.597C182.808 150.112 181.61 149.867 180.4 149.878C179.245 149.863 178.101 150.109 177.054 150.597C176.065 151.063 175.184 151.732 174.47 152.559C173.743 153.407 173.183 154.384 172.818 155.439C172.429 156.547 172.233 157.712 172.239 158.886Z" fill="white"/>
<path d="M204.944 143.665C204.936 143.345 205.004 143.028 205.141 142.739C205.264 142.486 205.442 142.264 205.663 142.089C205.882 141.918 206.131 141.789 206.397 141.708C206.657 141.625 206.929 141.581 207.202 141.58H211.467C211.674 141.57 211.881 141.602 212.075 141.675C212.27 141.748 212.447 141.86 212.597 142.004C212.9 142.318 213.144 142.684 213.317 143.085C213.527 143.551 213.701 144.032 213.839 144.525C213.987 145.044 214.166 145.553 214.376 146.05C214.941 145.432 215.501 144.82 216.057 144.214C216.602 143.621 217.203 143.082 217.851 142.604C218.498 142.131 219.205 141.746 219.955 141.461C220.791 141.157 221.676 141.008 222.566 141.024C223.48 141.015 224.393 141.091 225.293 141.249C226.071 141.394 226.832 141.616 227.566 141.913C228.309 142.22 229.022 142.593 229.698 143.029C230.403 143.481 231.171 144.008 231.999 144.611C232.334 144.752 232.624 144.982 232.838 145.275C233.052 145.568 233.182 145.915 233.214 146.277C233.183 146.79 233.017 147.287 232.734 147.717L230.164 152.094C229.968 152.424 229.692 152.698 229.361 152.891C229.03 153.084 228.655 153.188 228.272 153.195C227.831 153.181 227.399 153.076 227.001 152.886C226.284 152.162 225.449 151.565 224.531 151.122C223.629 150.723 222.651 150.525 221.665 150.543C221.007 150.53 220.352 150.634 219.731 150.852C219.181 151.056 218.67 151.352 218.22 151.727C217.745 152.128 217.319 152.583 216.95 153.082C216.553 153.61 216.158 154.194 215.762 154.833V175.279C215.806 175.867 215.618 176.449 215.241 176.903C215.003 177.107 214.727 177.261 214.429 177.356C214.13 177.451 213.816 177.484 213.504 177.454H207.149C206.852 177.498 206.549 177.473 206.263 177.38C205.978 177.287 205.718 177.128 205.504 176.917C205.29 176.706 205.128 176.448 205.032 176.164C204.935 175.879 204.906 175.576 204.947 175.279L204.944 143.665Z" fill="white"/>
<path d="M106.825 192.38C107.099 191.876 107.425 191.403 107.799 190.968C108.251 190.434 108.77 189.959 109.343 189.556C109.98 189.107 110.673 188.743 111.405 188.475C112.219 188.176 113.08 188.028 113.947 188.038C114.867 188.033 115.786 188.075 116.701 188.165C117.489 188.244 118.269 188.395 119.03 188.617C119.768 188.835 120.483 189.129 121.162 189.492C121.916 189.903 122.639 190.37 123.323 190.891C123.585 191.092 123.835 191.309 124.071 191.54C124.2 191.658 124.303 191.801 124.373 191.961C124.444 192.12 124.48 192.292 124.48 192.467C124.482 192.664 124.433 192.859 124.338 193.032L122.673 195.602C122.585 195.735 122.468 195.847 122.332 195.93C122.195 196.013 122.042 196.065 121.882 196.082C121.728 196.08 121.579 196.026 121.459 195.927C121.328 195.824 121.168 195.707 120.98 195.574C119.932 194.843 118.789 194.259 117.584 193.837C116.449 193.465 115.262 193.279 114.067 193.286C113.136 193.285 112.214 193.468 111.354 193.824C110.494 194.18 109.713 194.703 109.055 195.362C108.362 196.068 107.815 196.903 107.445 197.82C107.027 198.865 106.821 199.983 106.839 201.109V223.216C106.862 223.383 106.845 223.554 106.791 223.714C106.737 223.874 106.647 224.02 106.527 224.139C106.408 224.259 106.262 224.349 106.102 224.403C105.942 224.457 105.772 224.474 105.604 224.451H102.671C101.805 224.451 101.372 224.039 101.373 223.216V189.836C101.366 189.668 101.395 189.501 101.458 189.345C101.522 189.189 101.618 189.049 101.74 188.933C101.977 188.71 102.291 188.589 102.616 188.594H105.548C105.723 188.586 105.897 188.614 106.06 188.677C106.223 188.741 106.371 188.837 106.495 188.961C106.609 189.076 106.699 189.213 106.759 189.363C106.82 189.514 106.85 189.674 106.848 189.836L106.825 192.38Z" fill="white"/>
<path d="M151.727 215.594C151.901 215.44 152.085 215.299 152.278 215.171C152.388 215.086 152.516 215.026 152.651 214.995C152.787 214.964 152.927 214.964 153.063 214.993C153.199 215.023 153.327 215.081 153.438 215.165C153.549 215.249 153.64 215.356 153.705 215.479C154.081 215.988 154.387 216.399 154.621 216.714C154.856 217.029 155.049 217.283 155.2 217.477C155.351 217.682 155.464 217.833 155.54 217.927C155.63 218.035 155.706 218.154 155.765 218.281C155.823 218.409 155.852 218.549 155.85 218.69C155.838 218.93 155.754 219.162 155.609 219.354C155.371 219.669 155.091 219.949 154.776 220.187C153.974 220.823 153.13 221.403 152.249 221.924C151.368 222.444 150.448 222.892 149.495 223.265C148.512 223.648 147.497 223.941 146.461 224.14C143.726 224.651 140.91 224.53 138.229 223.787C136.68 223.351 135.194 222.714 133.81 221.894C131.046 220.26 128.731 217.965 127.073 215.216C126.242 213.833 125.596 212.347 125.153 210.796C124.698 209.203 124.47 207.553 124.476 205.895C124.466 202.621 125.308 199.4 126.917 196.549C128.485 193.786 130.755 191.487 133.498 189.884C134.906 189.064 136.415 188.432 137.988 188.005C139.648 187.556 141.362 187.333 143.082 187.342C144.498 187.342 145.91 187.503 147.289 187.822C148.675 188.139 150.021 188.608 151.303 189.22C152.588 189.835 153.796 190.598 154.904 191.494C156.029 192.403 157.04 193.445 157.912 194.599C159.139 196.264 160.049 198.141 160.595 200.135C161.209 202.465 161.486 204.871 161.415 207.28C161.415 208.165 161.001 208.607 160.172 208.607H130.406C130.716 210.089 131.285 211.504 132.087 212.787C132.868 214.046 133.84 215.174 134.967 216.134C136.081 217.081 137.346 217.834 138.709 218.364C140.067 218.897 141.513 219.17 142.972 219.169C143.917 219.179 144.861 219.079 145.783 218.872C146.572 218.691 147.339 218.427 148.071 218.082C148.739 217.763 149.377 217.385 149.977 216.952C150.56 216.528 151.126 216.09 151.675 215.638L151.727 215.594ZM136.251 194.695C134.805 195.668 133.55 196.898 132.547 198.324C131.519 199.767 130.798 201.407 130.429 203.14H155.958C155.77 201.634 155.276 200.182 154.504 198.875C153.759 197.615 152.787 196.505 151.638 195.6C150.47 194.686 149.157 193.975 147.754 193.496C146.315 192.997 144.801 192.744 143.278 192.747C142.052 192.747 140.832 192.909 139.649 193.227C138.452 193.55 137.308 194.045 136.253 194.697L136.251 194.695Z" fill="white"/>
<path d="M169.622 188.428C169.98 189.37 170.443 190.565 171.011 192.014C171.579 193.463 172.191 195.03 172.846 196.716C173.506 198.401 174.189 200.138 174.895 201.927C175.601 203.715 176.278 205.419 176.928 207.037C177.577 208.656 178.17 210.129 178.707 211.457C179.245 212.784 179.672 213.834 179.991 214.606C180.292 213.834 180.706 212.784 181.234 211.457C181.762 210.129 182.341 208.651 182.971 207.023C183.601 205.396 184.265 203.687 184.962 201.897C185.659 200.108 186.332 198.371 186.981 196.688C187.63 195.003 188.233 193.436 188.788 191.986C189.344 190.536 189.8 189.341 190.158 188.4C190.274 188.1 190.469 187.837 190.722 187.638C190.991 187.443 191.317 187.344 191.649 187.355H194.784C195.607 187.355 196.018 187.685 196.018 188.345C196.017 188.411 196.008 188.478 195.991 188.543C195.968 188.629 195.94 188.714 195.906 188.797C195.866 188.897 195.838 189 195.821 189.106L189.184 205.457L177.888 233.132V233.074C177.791 233.391 177.591 233.666 177.32 233.855C177.049 234.044 176.722 234.137 176.392 234.119H173.597C172.693 234.119 172.241 233.771 172.241 233.074C172.242 232.936 172.26 232.799 172.297 232.665C172.324 232.578 172.343 232.488 172.354 232.397L177.07 221.016L163.966 189.132C163.948 189.075 163.929 189.01 163.909 188.934C163.867 188.749 163.848 188.559 163.852 188.37C163.852 187.71 164.285 187.38 165.152 187.38H168.117C168.448 187.368 168.775 187.467 169.043 187.663C169.302 187.861 169.502 188.126 169.622 188.428Z" fill="white"/>
</svg>
